<svg xmlns="http://www.w3.org/2000/svg" viewBox="0 0 135.14 23.83"><defs><style>.cls-1{stroke:#000;}.cls-1,.cls-2{stroke-miterlimit:10;stroke-width:0.5px;}.cls-2{fill:#fed800;stroke:#fed800;}</style></defs><title>logo</title><g id="OBJECTS"><path class="cls-1" d="M9.29,18.72a8.81,8.81,0,0,1-6.45-2.56A8.6,8.6,0,0,1,.25,9.79,8.59,8.59,0,0,1,2.84,3.42,8.81,8.81,0,0,1,9.29.85a8.91,8.91,0,0,1,5.9,2.07,8.39,8.39,0,0,1,3,5.29H15.82a6.41,6.41,0,0,0-2.3-3.72A6.59,6.59,0,0,0,9.29,3.05,6.45,6.45,0,0,0,4.52,5,6.55,6.55,0,0,0,2.6,9.79a6.51,6.51,0,0,0,1.92,4.8,6.41,6.41,0,0,0,4.77,1.93,6.59,6.59,0,0,0,4.23-1.44,6.41,6.41,0,0,0,2.3-3.72H18.2a8.41,8.41,0,0,1-3,5.3A9,9,0,0,1,9.29,18.72Z"/><path class="cls-1" d="M23.18,8a4.61,4.61,0,0,1,4.18-2.5V7.68a4,4,0,0,0-3.07,1.18A4.4,4.4,0,0,0,23.18,12v6.41H21V5.66h2.15Z"/><path class="cls-1" d="M41.93,12c0,.27,0,.57,0,.9H30.66a4.43,4.43,0,0,0,4.48,3.8,4.86,4.86,0,0,0,2.54-.66,3.93,3.93,0,0,0,1.62-1.74h2.38a6.34,6.34,0,0,1-2.46,3.18,7,7,0,0,1-4.08,1.2,6.64,6.64,0,0,1-4.84-1.91A6.45,6.45,0,0,1,28.36,12,6.45,6.45,0,0,1,30.3,7.27a6.6,6.6,0,0,1,4.84-1.91A6.62,6.62,0,0,1,40,7.27,6.45,6.45,0,0,1,41.93,12ZM38.08,8.36a4.47,4.47,0,0,0-2.94-1,4.38,4.38,0,0,0-2.91,1A4.47,4.47,0,0,0,30.69,11h8.93A4.34,4.34,0,0,0,38.08,8.36Z"/><path class="cls-1" d="M55.24,5.66h2.15V18.42H55.24V16a5.7,5.7,0,0,1-5,2.73,6.07,6.07,0,0,1-4.56-1.91A6.64,6.64,0,0,1,43.9,12a6.64,6.64,0,0,1,1.83-4.77,6,6,0,0,1,4.56-1.91,5.72,5.72,0,0,1,5,2.72Zm-4.55,11a4.38,4.38,0,0,0,3.25-1.32A4.46,4.46,0,0,0,55.24,12a4.46,4.46,0,0,0-1.3-3.29,4.7,4.7,0,0,0-6.53,0A4.46,4.46,0,0,0,46.11,12a4.46,4.46,0,0,0,1.3,3.29A4.42,4.42,0,0,0,50.69,16.65Z"/><path class="cls-1" d="M67.86,5.66v2H64.93V18.42H62.78V7.61H60V5.66h2.76V2.33l2.15-.43V5.66Z"/><path class="cls-2" d="M80.44,16.74a7,7,0,0,1-9.56,0A6.33,6.33,0,0,1,69,12a6.33,6.33,0,0,1,1.92-4.7,7,7,0,0,1,9.56,0A6.36,6.36,0,0,1,82.35,12,6.36,6.36,0,0,1,80.44,16.74Zm-4.77-.16a4.33,4.33,0,0,0,3.2-1.3A4.39,4.39,0,0,0,80.15,12,4.39,4.39,0,0,0,78.87,8.8a4.63,4.63,0,0,0-6.43,0A4.39,4.39,0,0,0,71.15,12a4.43,4.43,0,0,0,4.52,4.54Z"/><path class="cls-1" d="M85.28,18.42V.4h2.15v18Z"/><path class="cls-1" d="M92.14,3.1a1.38,1.38,0,0,1-1-.41,1.34,1.34,0,0,1-.41-1,1.36,1.36,0,0,1,.41-1,1.41,1.41,0,0,1,1-.4,1.37,1.37,0,0,1,1,.4,1.36,1.36,0,0,1,.41,1,1.34,1.34,0,0,1-.41,1A1.34,1.34,0,0,1,92.14,3.1ZM91.06,18.42V5.66h2.15V18.42Z"/><path class="cls-1" d="M107.34,5.76h2.16V17.15a6.29,6.29,0,0,1-1.79,4.67A6.47,6.47,0,0,1,103,23.58a6.74,6.74,0,0,1-4.16-1.26,6.06,6.06,0,0,1-2.23-3.5h2.23a3.62,3.62,0,0,0,1.49,2,4.66,4.66,0,0,0,2.67.75,4.21,4.21,0,0,0,3.16-1.22,4.47,4.47,0,0,0,1.19-3.26V15.9a5.76,5.76,0,0,1-5,2.67,6.1,6.1,0,0,1-4.55-1.86A6.43,6.43,0,0,1,96,12a6.47,6.47,0,0,1,1.83-4.68,6.07,6.07,0,0,1,4.55-1.87,5.79,5.79,0,0,1,5,2.7Zm-4.55,10.86A4.41,4.41,0,0,0,106,15.31a4.5,4.5,0,0,0,1.3-3.3A4.42,4.42,0,0,0,106,8.75a4.7,4.7,0,0,0-6.53,0A4.42,4.42,0,0,0,98.21,12a4.5,4.5,0,0,0,1.3,3.3A4.45,4.45,0,0,0,102.79,16.62Z"/><path class="cls-1" d="M120,5.36a5.1,5.1,0,0,1,3.75,1.41,5.07,5.07,0,0,1,1.43,3.77v7.88H123V11.21a3.76,3.76,0,0,0-1-2.74,3.62,3.62,0,0,0-2.71-1,3.88,3.88,0,0,0-2.83,1.05,3.72,3.72,0,0,0-1.08,2.78v7.16h-2.15V.4h2.15V7.78A5.09,5.09,0,0,1,120,5.36Z"/><path class="cls-1" d="M134.89,5.66v2H132V18.42h-2.15V7.61h-2.75V5.66h2.75V2.33L132,1.9V5.66Z"/></g></svg>